<?xml version="1.0" standalone="no"?>
<!DOCTYPE svg PUBLIC "-//W3C//DTD SVG 20010904//EN"
 "http://www.w3.org/TR/2001/REC-SVG-20010904/DTD/svg10.dtd">
<svg version="1.0" xmlns="http://www.w3.org/2000/svg"
 width="125.000000pt" height="125.000000pt" viewBox="0 0 125.000000 125.000000"
 preserveAspectRatio="xMidYMid meet">
<metadata>
Created by potrace 1.11, written by Peter Selinger 2001-2013
</metadata>
<g transform="translate(0.000000,125.000000) scale(0.100000,-0.100000)"
fill="#000000" stroke="none">
<path d="M557 1240 c-76 -24 -133 -102 -136 -185 -1 -19 -7 -20 -93 -20 -118
1 -157 -9 -207 -52 -30 -25 -45 -48 -56 -87 -25 -86 -4 -154 66 -216 l29 -25
-42 -70 c-76 -129 -82 -193 -28 -278 48 -76 151 -108 234 -73 l34 14 47 -76
c63 -101 82 -121 134 -145 118 -53 258 22 277 149 l6 44 104 0 c112 0 152 11
196 51 83 78 83 219 -2 291 l-39 34 45 79 c25 43 48 95 53 115 36 162 -116
289 -272 228 -33 -13 -26 -20 -91 93 -55 93 -101 128 -177 134 -30 3 -67 0
-82 -5z m122 -68 c121 -61 95 -233 -39 -257 -106 -19 -196 106 -143 197 41 71
115 95 182 60z m141 -227 c-14 -17 -27 -63 -35 -128 -4 -28 -8 -53 -9 -54 -1
-1 -28 19 -59 44 l-58 46 42 18 c45 21 72 47 96 93 13 26 16 27 25 12 6 -11 6
-22 -2 -31z m-501 11 c92 -48 93 -188 0 -238 -62 -33 -134 -18 -178 38 -33 42
-36 86 -11 139 37 76 112 100 189 61z m140 -19 c7 -14 38 -43 67 -64 29 -21
54 -41 54 -44 0 -3 -15 -10 -32 -16 -18 -6 -49 -18 -68 -26 l-35 -15 0 68 c0
55 -4 74 -22 98 -12 16 -19 32 -16 36 9 9 38 -11 52 -37z m606 13 c60 -37 78
-127 39 -188 -47 -72 -161 -82 -217 -19 -109 124 37 294 178 207z m-369 -205
c115 -75 51 -267 -85 -252 -142 16 -177 195 -50 260 39 20 98 16 135 -8z m223
-94 c19 -6 51 -11 72 -11 22 0 39 -4 39 -10 0 -5 -3 -10 -7 -11 -72 -6 -97
-12 -148 -33 -33 -13 -61 -23 -62 -22 -1 1 3 34 9 74 l11 73 26 -24 c14 -13
41 -29 60 -36z m-501 -28 l-10 -72 -27 20 c-39 28 -98 47 -138 43 -56 -5 -33
20 24 27 28 4 75 18 104 31 30 14 55 24 56 24 1 -1 -3 -34 -9 -73z m-90 -89
c59 -39 79 -125 42 -187 -67 -114 -242 -72 -254 59 -10 113 117 189 212 128z
m718 7 c51 -23 88 -90 79 -142 -17 -95 -113 -145 -198 -104 -92 45 -102 174
-20 233 50 35 83 38 139 13z m-496 -109 l34 -29 -35 -12 c-39 -13 -88 -59
-112 -106 -13 -24 -17 -27 -22 -13 -3 9 2 33 13 55 11 21 23 68 27 105 l7 68
27 -19 c14 -11 42 -33 61 -49z m242 -6 c-4 -45 0 -63 21 -100 22 -40 23 -46 9
-46 -9 0 -25 13 -34 29 -9 17 -44 51 -77 77 -34 26 -61 49 -61 51 0 2 3 2 8
-1 4 -2 32 6 62 20 30 13 60 23 66 24 7 0 9 -19 6 -54z m-108 -98 c87 -46 97
-160 20 -228 -64 -55 -160 -36 -203 40 -25 45 -27 80 -5 126 20 41 33 53 81
69 39 14 72 11 107 -7z"/>
<path d="M1127 613 c-14 -13 -7 -23 16 -22 12 0 16 3 9 6 -6 2 -10 9 -6 14 6
10 -9 12 -19 2z"/>
</g>
</svg>
